<?xml version="1.0" standalone="no"?>
<!DOCTYPE svg PUBLIC "-//W3C//DTD SVG 20010904//EN"
 "http://www.w3.org/TR/2001/REC-SVG-20010904/DTD/svg10.dtd">
<svg version="1.0" xmlns="http://www.w3.org/2000/svg"
 width="1344.000000pt" height="1344.000000pt" viewBox="0 0 1344.000000 1344.000000"
 preserveAspectRatio="xMidYMid meet">
<metadata>
Created by potrace 1.11, written by Peter Selinger 2001-2013
</metadata>
<g transform="translate(0.000000,1344.000000) scale(0.100000,-0.100000)"
fill="#000000" stroke="none">
<path d="M9070 11383 c-470 -24 -834 -105 -1194 -265 -217 -96 -600 -302 -598
-322 0 -5 186 -104 414 -220 370 -188 419 -216 469 -266 94 -94 135 -212 118
-348 -9 -83 -44 -153 -125 -252 -313 -386 -2108 -2532 -2139 -2558 -99 -82
-216 -117 -360 -109 -88 4 -105 10 -783 261 -381 141 -698 256 -705 256 -25
-1 -389 -482 -573 -758 -137 -205 -217 -387 -244 -554 -19 -115 -9 -321 17
-379 24 -54 90 -131 108 -127 7 2 158 188 335 413 177 226 334 423 349 438 44
48 182 133 258 161 97 34 219 49 313 37 171 -22 295 -83 415 -205 133 -134
197 -292 197 -486 0 -111 -20 -207 -61 -290 -16 -32 -120 -199 -231 -372
l-201 -313 53 -25 c43 -20 68 -24 133 -24 146 1 195 37 361 261 62 83 824 995
1693 2027 l1581 1875 -10 78 c-18 145 -28 408 -18 509 37 404 205 735 475 938
198 149 448 235 760 262 l83 7 -27 49 c-55 100 -178 190 -334 242 -129 43
-352 68 -529 59z"/>
<path d="M9980 10884 c-258 -31 -362 -59 -510 -135 -335 -172 -554 -491 -601
-874 -6 -49 -9 -126 -5 -170 14 -192 448 -3656 465 -3720 109 -404 410 -699
821 -807 158 -41 423 -34 628 18 101 25 248 91 339 151 75 49 212 181 274 261
94 124 174 305 204 465 31 166 29 193 -205 2091 -121 982 -227 1818 -236 1858
-95 416 -431 747 -853 838 -87 19 -257 32 -321 24z"/>
<path d="M6833 10498 c-209 -179 -298 -266 -534 -523 -96 -104 -260 -279 -364
-390 -539 -567 -919 -979 -1131 -1225 -131 -153 -478 -590 -472 -595 2 -1 300
-102 663 -224 655 -221 661 -223 731 -218 142 8 53 -89 1218 1327 572 696
1050 1283 1060 1305 38 75 17 183 -46 242 -33 31 -894 453 -924 453 -16 0 -79
-47 -201 -152z"/>
<path d="M8140 8303 c-311 -365 -571 -673 -579 -684 -11 -16 -12 -33 -3 -92 5
-40 71 -497 146 -1017 75 -520 139 -956 142 -970 4 -22 28 -37 142 -94 l138
-69 106 -649 c58 -357 108 -651 111 -654 4 -4 1259 129 1333 141 29 5 35 13
69 96 76 180 203 386 328 532 33 38 57 70 56 72 -2 1 -45 17 -96 34 -377 126
-681 404 -872 801 -118 246 -100 133 -280 1727 -89 780 -164 1434 -168 1454
l-8 37 -565 -665z"/>
<path d="M4503 6485 c-65 -18 -126 -48 -175 -87 -34 -27 -565 -716 -557 -722
13 -9 862 -396 864 -394 28 33 373 566 386 596 143 334 -171 700 -518 607z"/>
<path d="M3221 5412 c-166 -86 -251 -136 -265 -155 -19 -26 -22 -48 -27 -230
-4 -111 -8 -354 -10 -540 l-4 -339 25 -21 c55 -45 479 -238 956 -435 l122 -50
375 377 c317 317 377 381 382 411 4 24 -10 116 -45 285 -28 138 -54 256 -58
263 -6 11 -1188 563 -1202 561 -3 0 -115 -58 -249 -127z m650 -528 c108 -32
199 -110 248 -213 23 -49 26 -69 26 -156 0 -91 -3 -106 -31 -165 -39 -83 -101
-145 -184 -184 -59 -28 -74 -31 -165 -31 -88 0 -107 3 -157 27 -178 83 -267
279 -210 464 62 200 274 316 473 258z"/>
<path d="M2285 4864 c-230 -85 -437 -166 -458 -180 -45 -30 -92 -100 -102
-152 -5 -28 35 -259 161 -934 93 -494 171 -898 174 -898 3 0 36 314 73 698 38
383 71 703 75 711 4 8 122 48 262 90 l255 77 3 372 c2 295 0 372 -10 371 -7 0
-202 -70 -433 -155z"/>
<path d="M10935 4989 c-96 -14 -233 -57 -332 -104 -607 -287 -857 -1017 -552
-1613 27 -53 69 -123 93 -155 54 -72 1155 -1307 1165 -1307 11 0 344 340 445
455 181 204 407 497 563 730 171 256 442 742 427 767 -20 32 -773 870 -827
921 -174 161 -410 274 -641 306 -89 13 -254 12 -341 0z"/>
<path d="M7895 4519 c-49 -10 -117 -32 -151 -49 -119 -58 -203 -181 -211 -309
-7 -95 58 -528 228 -1536 52 -307 64 -364 83 -385 382 -429 685 -726 989 -968
295 -235 583 -413 817 -503 47 -18 89 -36 94 -40 11 -10 197 86 396 204 293
174 591 383 861 605 l125 103 -89 87 c-229 223 -1121 1199 -1186 1298 -71 107
-87 169 -142 563 -28 195 -52 357 -54 361 -2 3 -331 -36 -732 -87 -400 -51
-733 -92 -739 -93 -6 0 -18 44 -27 98 -10 53 -41 226 -69 385 l-51 287 -26 -1
c-14 0 -66 -9 -116 -20z"/>
<path d="M4740 4027 c-52 -51 -173 -167 -269 -258 l-174 -166 97 -291 98 -291
-319 -313 c-539 -529 -699 -690 -673 -677 97 48 1569 855 1584 868 10 9 30 39
44 66 48 94 45 110 -127 663 -85 270 -157 492 -160 492 -3 0 -49 -42 -101 -93z"/>
</g>
</svg>
